<svg width="230" height="95" viewBox="0 0 230 95" fill="none" xmlns="http://www.w3.org/2000/svg">
<rect x="0.25" y="0.25" width="214.036" height="93.7394" rx="10.75" fill="#201F1F" stroke="#717171" stroke-width="0.5"/>
<path d="M110.066 13.9642H110.576L110.537 15.1792L111.677 14.7742L111.83 15.2482L110.669 15.5902L111.41 16.5502L111.008 16.8442L110.321 15.8422L109.634 16.8442L109.232 16.5502L109.973 15.5902L108.812 15.2482L108.965 14.7742L110.105 15.1792L110.066 13.9642ZM113.664 13.9642H114.174L114.135 15.1792L115.275 14.7742L115.428 15.2482L114.267 15.5902L115.008 16.5502L114.606 16.8442L113.919 15.8422L113.232 16.8442L112.83 16.5502L113.571 15.5902L112.41 15.2482L112.563 14.7742L113.703 15.1792L113.664 13.9642ZM117.262 13.9642H117.772L117.733 15.1792L118.873 14.7742L119.026 15.2482L117.865 15.5902L118.606 16.5502L118.204 16.8442L117.517 15.8422L116.83 16.8442L116.428 16.5502L117.169 15.5902L116.008 15.2482L116.161 14.7742L117.301 15.1792L117.262 13.9642ZM120.859 13.9642H121.369L121.33 15.1792L122.47 14.7742L122.623 15.2482L121.462 15.5902L122.203 16.5502L121.801 16.8442L121.114 15.8422L120.427 16.8442L120.025 16.5502L120.766 15.5902L119.605 15.2482L119.758 14.7742L120.898 15.1792L120.859 13.9642ZM124.457 13.9642H124.967L124.928 15.1792L126.068 14.7742L126.221 15.2482L125.06 15.5902L125.801 16.5502L125.399 16.8442L124.712 15.8422L124.025 16.8442L123.623 16.5502L124.364 15.5902L123.203 15.2482L123.356 14.7742L124.496 15.1792L124.457 13.9642ZM128.055 13.9642H128.565L128.526 15.1792L129.666 14.7742L129.819 15.2482L128.658 15.5902L129.399 16.5502L128.997 16.8442L128.31 15.8422L127.623 16.8442L127.221 16.5502L127.962 15.5902L126.801 15.2482L126.954 14.7742L128.094 15.1792L128.055 13.9642ZM131.652 13.9642H132.162L132.123 15.1792L133.263 14.7742L133.416 15.2482L132.255 15.5902L132.996 16.5502L132.594 16.8442L131.907 15.8422L131.22 16.8442L130.818 16.5502L131.559 15.5902L130.398 15.2482L130.551 14.7742L131.691 15.1792L131.652 13.9642ZM135.25 13.9642H135.76L135.721 15.1792L136.861 14.7742L137.014 15.2482L135.853 15.5902L136.594 16.5502L136.192 16.8442L135.505 15.8422L134.818 16.8442L134.416 16.5502L135.157 15.5902L133.996 15.2482L134.149 14.7742L135.289 15.1792L135.25 13.9642ZM138.848 13.9642H139.358L139.319 15.1792L140.459 14.7742L140.612 15.2482L139.451 15.5902L140.192 16.5502L139.79 16.8442L139.103 15.8422L138.416 16.8442L138.014 16.5502L138.755 15.5902L137.594 15.2482L137.747 14.7742L138.887 15.1792L138.848 13.9642ZM142.445 13.9642H142.955L142.916 15.1792L144.056 14.7742L144.209 15.2482L143.048 15.5902L143.789 16.5502L143.387 16.8442L142.7 15.8422L142.013 16.8442L141.611 16.5502L142.352 15.5902L141.191 15.2482L141.344 14.7742L142.484 15.1792L142.445 13.9642ZM113.664 21.9642H114.174L114.135 23.1792L115.275 22.7742L115.428 23.2482L114.267 23.5902L115.008 24.5502L114.606 24.8442L113.919 23.8422L113.232 24.8442L112.83 24.5502L113.571 23.5902L112.41 23.2482L112.563 22.7742L113.703 23.1792L113.664 21.9642ZM117.262 21.9642H117.772L117.733 23.1792L118.873 22.7742L119.026 23.2482L117.865 23.5902L118.606 24.5502L118.204 24.8442L117.517 23.8422L116.83 24.8442L116.428 24.5502L117.169 23.5902L116.008 23.2482L116.161 22.7742L117.301 23.1792L117.262 21.9642ZM120.859 21.9642H121.369L121.33 23.1792L122.47 22.7742L122.623 23.2482L121.462 23.5902L122.203 24.5502L121.801 24.8442L121.114 23.8422L120.427 24.8442L120.025 24.5502L120.766 23.5902L119.605 23.2482L119.758 22.7742L120.898 23.1792L120.859 21.9642ZM124.457 21.9642H124.967L124.928 23.1792L126.068 22.7742L126.221 23.2482L125.06 23.5902L125.801 24.5502L125.399 24.8442L124.712 23.8422L124.025 24.8442L123.623 24.5502L124.364 23.5902L123.203 23.2482L123.356 22.7742L124.496 23.1792L124.457 21.9642ZM128.055 21.9642H128.565L128.526 23.1792L129.666 22.7742L129.819 23.2482L128.658 23.5902L129.399 24.5502L128.997 24.8442L128.31 23.8422L127.623 24.8442L127.221 24.5502L127.962 23.5902L126.801 23.2482L126.954 22.7742L128.094 23.1792L128.055 21.9642ZM131.652 21.9642H132.162L132.123 23.1792L133.263 22.7742L133.416 23.2482L132.255 23.5902L132.996 24.5502L132.594 24.8442L131.907 23.8422L131.22 24.8442L130.818 24.5502L131.559 23.5902L130.398 23.2482L130.551 22.7742L131.691 23.1792L131.652 21.9642ZM135.25 21.9642H135.76L135.721 23.1792L136.861 22.7742L137.014 23.2482L135.853 23.5902L136.594 24.5502L136.192 24.8442L135.505 23.8422L134.818 24.8442L134.416 24.5502L135.157 23.5902L133.996 23.2482L134.149 22.7742L135.289 23.1792L135.25 21.9642ZM138.848 21.9642H139.358L139.319 23.1792L140.459 22.7742L140.612 23.2482L139.451 23.5902L140.192 24.5502L139.79 24.8442L139.103 23.8422L138.416 24.8442L138.014 24.5502L138.755 23.5902L137.594 23.2482L137.747 22.7742L138.887 23.1792L138.848 21.9642ZM117.262 29.9642H117.772L117.733 31.1792L118.873 30.7742L119.026 31.2482L117.865 31.5902L118.606 32.5502L118.204 32.8442L117.517 31.8422L116.83 32.8442L116.428 32.5502L117.169 31.5902L116.008 31.2482L116.161 30.7742L117.301 31.1792L117.262 29.9642ZM120.859 29.9642H121.369L121.33 31.1792L122.47 30.7742L122.623 31.2482L121.462 31.5902L122.203 32.5502L121.801 32.8442L121.114 31.8422L120.427 32.8442L120.025 32.5502L120.766 31.5902L119.605 31.2482L119.758 30.7742L120.898 31.1792L120.859 29.9642ZM124.457 29.9642H124.967L124.928 31.1792L126.068 30.7742L126.221 31.2482L125.06 31.5902L125.801 32.5502L125.399 32.8442L124.712 31.8422L124.025 32.8442L123.623 32.5502L124.364 31.5902L123.203 31.2482L123.356 30.7742L124.496 31.1792L124.457 29.9642ZM128.055 29.9642H128.565L128.526 31.1792L129.666 30.7742L129.819 31.2482L128.658 31.5902L129.399 32.5502L128.997 32.8442L128.31 31.8422L127.623 32.8442L127.221 32.5502L127.962 31.5902L126.801 31.2482L126.954 30.7742L128.094 31.1792L128.055 29.9642ZM131.652 29.9642H132.162L132.123 31.1792L133.263 30.7742L133.416 31.2482L132.255 31.5902L132.996 32.5502L132.594 32.8442L131.907 31.8422L131.22 32.8442L130.818 32.5502L131.559 31.5902L130.398 31.2482L130.551 30.7742L131.691 31.1792L131.652 29.9642ZM135.25 29.9642H135.76L135.721 31.1792L136.861 30.7742L137.014 31.2482L135.853 31.5902L136.594 32.5502L136.192 32.8442L135.505 31.8422L134.818 32.8442L134.416 32.5502L135.157 31.5902L133.996 31.2482L134.149 30.7742L135.289 31.1792L135.25 29.9642ZM120.859 37.9642H121.369L121.33 39.1792L122.47 38.7742L122.623 39.2482L121.462 39.5902L122.203 40.5502L121.801 40.8442L121.114 39.8422L120.427 40.8442L120.025 40.5502L120.766 39.5902L119.605 39.2482L119.758 38.7742L120.898 39.1792L120.859 37.9642ZM124.457 37.9642H124.967L124.928 39.1792L126.068 38.7742L126.221 39.2482L125.06 39.5902L125.801 40.5502L125.399 40.8442L124.712 39.8422L124.025 40.8442L123.623 40.5502L124.364 39.5902L123.203 39.2482L123.356 38.7742L124.496 39.1792L124.457 37.9642ZM128.055 37.9642H128.565L128.526 39.1792L129.666 38.7742L129.819 39.2482L128.658 39.5902L129.399 40.5502L128.997 40.8442L128.31 39.8422L127.623 40.8442L127.221 40.5502L127.962 39.5902L126.801 39.2482L126.954 38.7742L128.094 39.1792L128.055 37.9642ZM131.652 37.9642H132.162L132.123 39.1792L133.263 38.7742L133.416 39.2482L132.255 39.5902L132.996 40.5502L132.594 40.8442L131.907 39.8422L131.22 40.8442L130.818 40.5502L131.559 39.5902L130.398 39.2482L130.551 38.7742L131.691 39.1792L131.652 37.9642ZM124.605 45.9642H125.115L125.076 47.1792L126.216 46.7742L126.369 47.2482L125.208 47.5902L125.949 48.5502L125.547 48.8442L124.86 47.8422L124.173 48.8442L123.771 48.5502L124.512 47.5902L123.351 47.2482L123.504 46.7742L124.644 47.1792L124.605 45.9642ZM127.905 45.9642H128.415L128.376 47.1792L129.516 46.7742L129.669 47.2482L128.508 47.5902L129.249 48.5502L128.847 48.8442L128.16 47.8422L127.473 48.8442L127.071 48.5502L127.812 47.5902L126.651 47.2482L126.804 46.7742L127.944 47.1792L127.905 45.9642Z" fill="#E9BA56"/>
<path d="M5.13428 21.4904C5.27595 21.4904 5.40428 21.5029 5.51928 21.5279C5.63428 21.5529 5.74345 21.5879 5.84678 21.6329L5.71178 21.9454C5.62678 21.9087 5.53678 21.8812 5.44178 21.8629C5.34678 21.8445 5.24845 21.8354 5.14678 21.8354C4.96345 21.8354 4.82512 21.8712 4.73178 21.9429C4.64012 22.0145 4.59428 22.1245 4.59428 22.2729V22.8079H5.48678L5.44178 23.1379H4.59428V25.2354H4.17428V23.1379H3.54678V22.8079H4.17428V22.2829C4.17428 22.1195 4.21595 21.9787 4.29928 21.8604C4.38428 21.742 4.49928 21.6512 4.64428 21.5879C4.78928 21.5229 4.95262 21.4904 5.13428 21.4904ZM7.57983 22.5479C7.82816 22.5479 8.03566 22.6045 8.20233 22.7179C8.37066 22.8295 8.4965 22.9879 8.57983 23.1929C8.66483 23.3979 8.70733 23.6395 8.70733 23.9179C8.70733 24.1862 8.664 24.4237 8.57733 24.6304C8.49066 24.837 8.36316 24.9995 8.19483 25.1179C8.02816 25.2345 7.8215 25.2929 7.57483 25.2929C7.32816 25.2929 7.12066 25.2362 6.95233 25.1229C6.784 25.0095 6.6565 24.8504 6.56983 24.6454C6.48483 24.4387 6.44233 24.1979 6.44233 23.9229C6.44233 23.6512 6.48566 23.412 6.57233 23.2054C6.659 22.9987 6.7865 22.8379 6.95483 22.7229C7.12483 22.6062 7.33316 22.5479 7.57983 22.5479ZM7.57983 22.8904C7.35316 22.8904 7.1815 22.9745 7.06483 23.1429C6.94983 23.3095 6.89233 23.5695 6.89233 23.9229C6.89233 24.2695 6.949 24.527 7.06233 24.6954C7.17733 24.8637 7.34816 24.9479 7.57483 24.9479C7.8015 24.9479 7.9715 24.8637 8.08483 24.6954C8.19983 24.527 8.25733 24.2679 8.25733 23.9179C8.25733 23.5679 8.20066 23.3095 8.08733 23.1429C7.974 22.9745 7.80483 22.8904 7.57983 22.8904ZM9.60038 25.2354V24.9129H10.0104V22.9254H9.60038V22.6029H10.3304L10.4079 23.2254C10.5095 23.0087 10.6329 22.8412 10.7779 22.7229C10.9229 22.6045 11.1145 22.5454 11.3529 22.5454C11.4262 22.5454 11.4912 22.5512 11.5479 22.5629C11.6062 22.5729 11.6654 22.5862 11.7254 22.6029L11.6029 22.9779C11.5479 22.9629 11.4979 22.952 11.4529 22.9454C11.4079 22.937 11.3562 22.9329 11.2979 22.9329C11.0962 22.9329 10.9229 23.0045 10.7779 23.1479C10.6329 23.2912 10.517 23.5079 10.4304 23.7979V24.9129H10.9654V25.2354H9.60038ZM11.3204 23.4929V22.9204L11.3629 22.6029H11.7254L11.6654 23.4929H11.3204ZM14.1284 28.4904C14.2701 28.4904 14.3984 28.5029 14.5134 28.5279C14.6284 28.5529 14.7376 28.5879 14.8409 28.6329L14.7059 28.9454C14.6209 28.9087 14.5309 28.8812 14.4359 28.8629C14.3409 28.8445 14.2426 28.8354 14.1409 28.8354C13.9576 28.8354 13.8193 28.8712 13.7259 28.9429C13.6343 29.0145 13.5884 29.1245 13.5884 29.2729V29.8079H14.4809L14.4359 30.1379H13.5884V32.2354H13.1684V30.1379H12.5409V29.8079H13.1684V29.2829C13.1684 29.1195 13.2101 28.9787 13.2934 28.8604C13.3784 28.742 13.4934 28.6512 13.6384 28.5879C13.7834 28.5229 13.9468 28.4904 14.1284 28.4904ZM16.574 29.5479C16.8223 29.5479 17.0298 29.6045 17.1965 29.7179C17.3648 29.8295 17.4906 29.9879 17.574 30.1929C17.659 30.3979 17.7015 30.6395 17.7015 30.9179C17.7015 31.1862 17.6581 31.4237 17.5715 31.6304C17.4848 31.837 17.3573 31.9995 17.189 32.1179C17.0223 32.2345 16.8156 32.2929 16.569 32.2929C16.3223 32.2929 16.1148 32.2362 15.9465 32.1229C15.7781 32.0095 15.6506 31.8504 15.564 31.6454C15.479 31.4387 15.4365 31.1979 15.4365 30.9229C15.4365 30.6512 15.4798 30.412 15.5665 30.2054C15.6531 29.9987 15.7806 29.8379 15.949 29.7229C16.119 29.6062 16.3273 29.5479 16.574 29.5479ZM16.574 29.8904C16.3473 29.8904 16.1756 29.9745 16.059 30.1429C15.944 30.3095 15.8865 30.5695 15.8865 30.9229C15.8865 31.2695 15.9431 31.527 16.0565 31.6954C16.1715 31.8637 16.3423 31.9479 16.569 31.9479C16.7956 31.9479 16.9656 31.8637 17.079 31.6954C17.194 31.527 17.2515 31.2679 17.2515 30.9179C17.2515 30.5679 17.1948 30.3095 17.0815 30.1429C16.9681 29.9745 16.799 29.8904 16.574 29.8904ZM18.5945 32.2354V31.9129H19.0045V29.9254H18.5945V29.6029H19.3245L19.402 30.2254C19.5037 30.0087 19.627 29.8412 19.772 29.7229C19.917 29.6045 20.1087 29.5454 20.347 29.5454C20.4204 29.5454 20.4854 29.5512 20.542 29.5629C20.6004 29.5729 20.6595 29.5862 20.7195 29.6029L20.597 29.9779C20.542 29.9629 20.492 29.952 20.447 29.9454C20.402 29.937 20.3504 29.9329 20.292 29.9329C20.0904 29.9329 19.917 30.0045 19.772 30.1479C19.627 30.2912 19.5112 30.5079 19.4245 30.7979V31.9129H19.9595V32.2354H18.5945ZM20.3145 30.4929V29.9204L20.357 29.6029H20.7195L20.6595 30.4929H20.3145Z" fill="#FF79C6"/>
<path d="M16.1315 23.4854C16.1315 23.7454 16.154 23.9787 16.199 24.1854C16.244 24.3904 16.3106 24.5787 16.399 24.7504C16.4873 24.9204 16.5981 25.082 16.7315 25.2354C16.8665 25.3904 17.0231 25.547 17.2015 25.7054L16.9815 25.9354C16.7115 25.7137 16.4798 25.487 16.2865 25.2554C16.0948 25.0237 15.9473 24.7654 15.844 24.4804C15.7423 24.1954 15.6915 23.8637 15.6915 23.4854C15.6915 23.1054 15.7423 22.7729 15.844 22.4879C15.9473 22.2029 16.0948 21.9445 16.2865 21.7129C16.4798 21.4812 16.7115 21.2554 16.9815 21.0354L17.2015 21.2654C17.0215 21.4254 16.864 21.5829 16.729 21.7379C16.5956 21.8912 16.4848 22.0529 16.3965 22.2229C16.3081 22.3912 16.2415 22.5787 16.1965 22.7854C16.1531 22.9904 16.1315 23.2237 16.1315 23.4854ZM19.902 22.6029V24.9029H20.6445V25.2354H18.6695V24.9029H19.482V22.9354H18.6945V22.6029H19.902ZM19.567 21.3704C19.6603 21.3704 19.7345 21.3987 19.7895 21.4554C19.8462 21.512 19.8745 21.5812 19.8745 21.6629C19.8745 21.7479 19.8462 21.8195 19.7895 21.8779C19.7345 21.9345 19.6603 21.9629 19.567 21.9629C19.4787 21.9629 19.4062 21.9345 19.3495 21.8779C19.2928 21.8195 19.2645 21.7479 19.2645 21.6629C19.2645 21.5812 19.2928 21.512 19.3495 21.4554C19.4062 21.3987 19.4787 21.3704 19.567 21.3704ZM21.5676 25.2354V22.6029H21.9251L21.9576 22.9679C22.0642 22.8329 22.1976 22.7295 22.3576 22.6579C22.5192 22.5845 22.6759 22.5479 22.8276 22.5479C23.0859 22.5479 23.2734 22.6162 23.3901 22.7529C23.5084 22.8895 23.5676 23.0795 23.5676 23.3229V25.2354H23.1476V23.6329C23.1476 23.4529 23.1376 23.3079 23.1176 23.1979C23.0976 23.0862 23.0559 23.0054 22.9926 22.9554C22.9292 22.9037 22.8309 22.8779 22.6976 22.8779C22.5942 22.8779 22.4967 22.9004 22.4051 22.9454C22.3151 22.9904 22.2342 23.047 22.1626 23.1154C22.0926 23.182 22.0342 23.2495 21.9876 23.3179V25.2354H21.5676ZM26.6556 25.1029C26.5656 25.1629 26.4564 25.2095 26.3281 25.2429C26.1998 25.2762 26.0739 25.2929 25.9506 25.2929C25.6673 25.2929 25.4489 25.2187 25.2956 25.0704C25.1423 24.922 25.0656 24.7312 25.0656 24.4979V22.9279H24.4606V22.6029H25.0656V22.0054L25.4856 21.9554V22.6029H26.3956L26.3456 22.9279H25.4856V24.4929C25.4856 24.6395 25.5239 24.7512 25.6006 24.8279C25.6789 24.9045 25.8081 24.9429 25.9881 24.9429C26.0864 24.9429 26.1773 24.9312 26.2606 24.9079C26.3439 24.8845 26.4214 24.8545 26.4931 24.8179L26.6556 25.1029ZM31.8942 22.6029V24.9029H32.6367V25.2354H30.6617V24.9029H31.4742V22.9354H30.6867V22.6029H31.8942ZM31.5592 21.3704C31.6525 21.3704 31.7267 21.3987 31.7817 21.4554C31.8384 21.512 31.8667 21.5812 31.8667 21.6629C31.8667 21.7479 31.8384 21.8195 31.7817 21.8779C31.7267 21.9345 31.6525 21.9629 31.5592 21.9629C31.4709 21.9629 31.3984 21.9345 31.3417 21.8779C31.285 21.8195 31.2567 21.7479 31.2567 21.6629C31.2567 21.5812 31.285 21.512 31.3417 21.4554C31.3984 21.3987 31.4709 21.3704 31.5592 21.3704ZM38.5278 23.0254V23.3879H36.5828V23.0254H38.5278ZM38.5278 23.9729V24.3379H36.5828V23.9729H38.5278ZM46.5444 24.4079C46.6611 24.4079 46.7578 24.4479 46.8344 24.5279C46.9128 24.6062 46.9519 24.6995 46.9519 24.8079C46.9519 24.8695 46.9444 24.9312 46.9294 24.9929C46.9161 25.0545 46.8903 25.1254 46.8519 25.2054L46.4469 26.1354H46.0669L46.3069 25.1429C46.1969 25.0662 46.1419 24.9554 46.1419 24.8104C46.1419 24.6987 46.1803 24.6037 46.2569 24.5254C46.3353 24.447 46.4311 24.4079 46.5444 24.4079ZM46.5444 22.6804C46.6611 22.6804 46.7578 22.7195 46.8344 22.7979C46.9128 22.8762 46.9519 22.9712 46.9519 23.0829C46.9519 23.1929 46.9128 23.2887 46.8344 23.3704C46.7578 23.4504 46.6611 23.4904 46.5444 23.4904C46.4311 23.4904 46.3353 23.4504 46.2569 23.3704C46.1803 23.2887 46.1419 23.1929 46.1419 23.0829C46.1419 23.0062 46.1594 22.9379 46.1944 22.8779C46.2294 22.8179 46.2778 22.7704 46.3394 22.7354C46.4011 22.6987 46.4694 22.6804 46.5444 22.6804ZM52.8805 22.6029V24.9029H53.623V25.2354H51.648V24.9029H52.4605V22.9354H51.673V22.6029H52.8805ZM52.5455 21.3704C52.6389 21.3704 52.713 21.3987 52.768 21.4554C52.8247 21.512 52.853 21.5812 52.853 21.6629C52.853 21.7479 52.8247 21.8195 52.768 21.8779C52.713 21.9345 52.6389 21.9629 52.5455 21.9629C52.4572 21.9629 52.3847 21.9345 52.328 21.8779C52.2714 21.8195 52.243 21.7479 52.243 21.6629C52.243 21.5812 52.2714 21.512 52.328 21.4554C52.3847 21.3987 52.4572 21.3704 52.5455 21.3704ZM61.4822 24.2129L61.3322 24.5529L58.5922 23.3354L58.7397 23.0104L61.4822 24.2129ZM61.3897 25.3729L61.2422 25.7129L58.4997 24.4954L58.6472 24.1704L61.3897 25.3729ZM61.4822 22.0529L58.7397 23.2579L58.5922 23.3354V22.9329L61.3322 21.7129L61.4822 22.0529ZM66.9583 22.9454C67.0549 22.8187 67.1658 22.7212 67.2908 22.6529C67.4174 22.5829 67.5566 22.5479 67.7083 22.5479C67.9433 22.5479 68.1333 22.6045 68.2783 22.7179C68.4233 22.8312 68.5291 22.9912 68.5958 23.1979C68.6624 23.4029 68.6958 23.6429 68.6958 23.9179C68.6958 24.1829 68.6558 24.4195 68.5758 24.6279C68.4958 24.8345 68.3783 24.997 68.2233 25.1154C68.0699 25.2337 67.8799 25.2929 67.6533 25.2929C67.3483 25.2929 67.1091 25.1829 66.9358 24.9629L66.9058 25.2354H66.5383V21.5429L66.9583 21.4904V22.9454ZM67.5533 24.9529C67.7733 24.9529 67.9424 24.8679 68.0608 24.6979C68.1791 24.5279 68.2383 24.267 68.2383 23.9154C68.2383 23.6854 68.2149 23.4945 68.1683 23.3429C68.1216 23.1895 68.0516 23.0754 67.9583 23.0004C67.8666 22.9237 67.7533 22.8854 67.6183 22.8854C67.4716 22.8854 67.3424 22.9295 67.2308 23.0179C67.1208 23.1045 67.0299 23.2012 66.9583 23.3079V24.6129C67.0266 24.7162 67.1124 24.7987 67.2158 24.8604C67.3208 24.922 67.4333 24.9529 67.5533 24.9529ZM70.5288 24.4079C70.6455 24.4079 70.7421 24.4479 70.8188 24.5279C70.8971 24.6062 70.9363 24.6995 70.9363 24.8079C70.9363 24.8695 70.9288 24.9312 70.9138 24.9929C70.9005 25.0545 70.8746 25.1254 70.8363 25.2054L70.4313 26.1354H70.0513L70.2913 25.1429C70.1813 25.0662 70.1263 24.9554 70.1263 24.8104C70.1263 24.6987 70.1646 24.6037 70.2413 24.5254C70.3196 24.447 70.4155 24.4079 70.5288 24.4079ZM70.5288 22.6804C70.6455 22.6804 70.7421 22.7195 70.8188 22.7979C70.8971 22.8762 70.9363 22.9712 70.9363 23.0829C70.9363 23.1929 70.8971 23.2887 70.8188 23.3704C70.7421 23.4504 70.6455 23.4904 70.5288 23.4904C70.4155 23.4904 70.3196 23.4504 70.2413 23.3704C70.1646 23.2887 70.1263 23.1929 70.1263 23.0829C70.1263 23.0062 70.1438 22.9379 70.1788 22.8779C70.2138 22.8179 70.2621 22.7704 70.3238 22.7354C70.3855 22.6987 70.4538 22.6804 70.5288 22.6804ZM76.8649 22.6029V24.9029H77.6074V25.2354H75.6324V24.9029H76.4449V22.9354H75.6574V22.6029H76.8649ZM76.5299 21.3704C76.6232 21.3704 76.6974 21.3987 76.7524 21.4554C76.8091 21.512 76.8374 21.5812 76.8374 21.6629C76.8374 21.7479 76.8091 21.8195 76.7524 21.8779C76.6974 21.9345 76.6232 21.9629 76.5299 21.9629C76.4416 21.9629 76.3691 21.9345 76.3124 21.8779C76.2557 21.8195 76.2274 21.7479 76.2274 21.6629C76.2274 21.5812 76.2557 21.512 76.3124 21.4554C76.3691 21.3987 76.4416 21.3704 76.5299 21.3704ZM79.966 23.8579V24.8479H79.5735V23.8579H78.6035V23.5054H79.5735V22.5079H79.966V23.5054H82.0735V22.5079H82.466V23.5054H83.4485V23.8579H82.466V24.8479H82.0735V23.8579H79.966ZM85.9615 23.4854C85.9615 23.2237 85.939 22.9904 85.894 22.7854C85.8507 22.5787 85.7849 22.3912 85.6965 22.2229C85.6082 22.0529 85.4965 21.8912 85.3615 21.7379C85.2282 21.5829 85.0715 21.4254 84.8915 21.2654L85.1115 21.0354C85.3832 21.2554 85.6149 21.4812 85.8065 21.7129C85.9982 21.9445 86.1449 22.2029 86.2465 22.4879C86.3499 22.7729 86.4015 23.1054 86.4015 23.4854C86.4015 23.8637 86.3499 24.1954 86.2465 24.4804C86.1449 24.7654 85.9982 25.0237 85.8065 25.2554C85.6149 25.487 85.3832 25.7137 85.1115 25.9354L84.8915 25.7054C85.0699 25.547 85.2257 25.3904 85.359 25.2354C85.494 25.082 85.6057 24.9204 85.694 24.7504C85.7824 24.5787 85.849 24.3904 85.894 24.1854C85.939 23.9787 85.9615 23.7454 85.9615 23.4854ZM92.2776 21.0579V21.3879C92.156 21.3879 92.0451 21.4004 91.9451 21.4254C91.8468 21.4487 91.7701 21.4895 91.7151 21.5479C91.6618 21.6062 91.6393 21.6862 91.6476 21.7879L91.7526 22.8129C91.7676 22.9529 91.7593 23.0687 91.7276 23.1604C91.696 23.252 91.6426 23.3237 91.5676 23.3754C91.4943 23.427 91.4001 23.4637 91.2851 23.4854C91.4018 23.5054 91.4976 23.5404 91.5726 23.5904C91.6476 23.6387 91.7001 23.7087 91.7301 23.8004C91.7601 23.8904 91.7676 24.0095 91.7526 24.1579L91.6476 25.1829C91.6393 25.2862 91.6618 25.367 91.7151 25.4254C91.7685 25.4837 91.8451 25.5245 91.9451 25.5479C92.0451 25.5712 92.156 25.5829 92.2776 25.5829V25.9129C92.1376 25.9129 92.0035 25.9004 91.8751 25.8754C91.7468 25.852 91.6335 25.8112 91.5351 25.7529C91.4368 25.6945 91.3626 25.6145 91.3126 25.5129C91.2626 25.4129 91.246 25.2862 91.2626 25.1329L91.3626 24.1829C91.376 24.0679 91.3651 23.9712 91.3301 23.8929C91.2968 23.8145 91.2235 23.7554 91.1101 23.7154C90.9985 23.6737 90.831 23.6529 90.6076 23.6529V23.3179C90.831 23.3179 90.9985 23.2979 91.1101 23.2579C91.2235 23.2179 91.2968 23.1587 91.3301 23.0804C91.3651 23.002 91.376 22.9062 91.3626 22.7929L91.2626 21.8379C91.246 21.6845 91.2626 21.5579 91.3126 21.4579C91.3626 21.3562 91.436 21.2762 91.5326 21.2179C91.631 21.1595 91.7443 21.1187 91.8726 21.0954C92.0026 21.0704 92.1376 21.0579 92.2776 21.0579ZM25.1256 30.4854C25.1256 30.7454 25.1481 30.9787 25.1931 31.1854C25.2381 31.3904 25.3048 31.5787 25.3931 31.7504C25.4814 31.9204 25.5923 32.082 25.7256 32.2354C25.8606 32.3904 26.0173 32.547 26.1956 32.7054L25.9756 32.9354C25.7056 32.7137 25.4739 32.487 25.2806 32.2554C25.0889 32.0237 24.9414 31.7654 24.8381 31.4804C24.7364 31.1954 24.6856 30.8637 24.6856 30.4854C24.6856 30.1054 24.7364 29.7729 24.8381 29.4879C24.9414 29.2029 25.0889 28.9445 25.2806 28.7129C25.4739 28.4812 25.7056 28.2554 25.9756 28.0354L26.1956 28.2654C26.0156 28.4254 25.8581 28.5829 25.7231 28.7379C25.5898 28.8912 25.4789 29.0529 25.3906 29.2229C25.3023 29.3912 25.2356 29.5787 25.1906 29.7854C25.1473 29.9904 25.1256 30.2237 25.1256 30.4854ZM28.8962 29.6029V31.9029H29.6387V32.2354H27.6637V31.9029H28.4762V29.9354H27.6887V29.6029H28.8962ZM28.5612 28.3704C28.6545 28.3704 28.7287 28.3987 28.7837 28.4554C28.8403 28.512 28.8687 28.5812 28.8687 28.6629C28.8687 28.7479 28.8403 28.8195 28.7837 28.8779C28.7287 28.9345 28.6545 28.9629 28.5612 28.9629C28.4728 28.9629 28.4003 28.9345 28.3437 28.8779C28.287 28.8195 28.2587 28.7479 28.2587 28.6629C28.2587 28.5812 28.287 28.512 28.3437 28.4554C28.4003 28.3987 28.4728 28.3704 28.5612 28.3704ZM30.5617 32.2354V29.6029H30.9192L30.9517 29.9679C31.0584 29.8329 31.1917 29.7295 31.3517 29.6579C31.5134 29.5845 31.67 29.5479 31.8217 29.5479C32.08 29.5479 32.2675 29.6162 32.3842 29.7529C32.5025 29.8895 32.5617 30.0795 32.5617 30.3229V32.2354H32.1417V30.6329C32.1417 30.4529 32.1317 30.3079 32.1117 30.1979C32.0917 30.0862 32.05 30.0054 31.9867 29.9554C31.9234 29.9037 31.825 29.8779 31.6917 29.8779C31.5884 29.8779 31.4909 29.9004 31.3992 29.9454C31.3092 29.9904 31.2284 30.047 31.1567 30.1154C31.0867 30.182 31.0284 30.2495 30.9817 30.3179V32.2354H30.5617ZM35.6498 32.1029C35.5598 32.1629 35.4506 32.2095 35.3223 32.2429C35.1939 32.2762 35.0681 32.2929 34.9448 32.2929C34.6614 32.2929 34.4431 32.2187 34.2898 32.0704C34.1364 31.922 34.0598 31.7312 34.0598 31.4979V29.9279H33.4548V29.6029H34.0598V29.0054L34.4798 28.9554V29.6029H35.3898L35.3398 29.9279H34.4798V31.4929C34.4798 31.6395 34.5181 31.7512 34.5948 31.8279C34.6731 31.9045 34.8023 31.9429 34.9823 31.9429C35.0806 31.9429 35.1714 31.9312 35.2548 31.9079C35.3381 31.8845 35.4156 31.8545 35.4873 31.8179L35.6498 32.1029ZM41.2783 29.6029V31.8129C41.2783 32.1062 41.2125 32.3512 41.0808 32.5479C40.9492 32.7462 40.7583 32.9054 40.5083 33.0254C40.2583 33.1454 39.9558 33.2354 39.6008 33.2954L39.5308 32.9704C39.7908 32.927 40.0208 32.862 40.2208 32.7754C40.4208 32.6887 40.5767 32.5695 40.6883 32.4179C40.8017 32.2679 40.8583 32.0754 40.8583 31.8404V29.9354H39.7633V29.6029H41.2783ZM40.8858 28.3704C40.9792 28.3704 41.0542 28.3987 41.1108 28.4554C41.1675 28.512 41.1958 28.5812 41.1958 28.6629C41.1958 28.7479 41.1675 28.8195 41.1108 28.8779C41.0542 28.9345 40.9792 28.9629 40.8858 28.9629C40.7958 28.9629 40.7233 28.9345 40.6683 28.8779C40.6133 28.8195 40.5858 28.7479 40.5858 28.6629C40.5858 28.5812 40.6133 28.512 40.6683 28.4554C40.7233 28.3987 40.7958 28.3704 40.8858 28.3704ZM47.5219 30.0254V30.3879H45.5769V30.0254H47.5219ZM47.5219 30.9729V31.3379H45.5769V30.9729H47.5219ZM55.5386 31.4079C55.6552 31.4079 55.7519 31.4479 55.8286 31.5279C55.9069 31.6062 55.9461 31.6995 55.9461 31.8079C55.9461 31.8695 55.9386 31.9312 55.9236 31.9929C55.9102 32.0545 55.8844 32.1254 55.8461 32.2054L55.4411 33.1354H55.0611L55.3011 32.1429C55.1911 32.0662 55.1361 31.9554 55.1361 31.8104C55.1361 31.6987 55.1744 31.6037 55.2511 31.5254C55.3294 31.447 55.4252 31.4079 55.5386 31.4079ZM55.5386 29.6804C55.6552 29.6804 55.7519 29.7195 55.8286 29.7979C55.9069 29.8762 55.9461 29.9712 55.9461 30.0829C55.9461 30.1929 55.9069 30.2887 55.8286 30.3704C55.7519 30.4504 55.6552 30.4904 55.5386 30.4904C55.4252 30.4904 55.3294 30.4504 55.2511 30.3704C55.1744 30.2887 55.1361 30.1929 55.1361 30.0829C55.1361 30.0062 55.1536 29.9379 55.1886 29.8779C55.2236 29.8179 55.2719 29.7704 55.3336 29.7354C55.3952 29.6987 55.4636 29.6804 55.5386 29.6804ZM62.2647 29.6029V31.8129C62.2647 32.1062 62.1988 32.3512 62.0672 32.5479C61.9355 32.7462 61.7447 32.9054 61.4947 33.0254C61.2447 33.1454 60.9422 33.2354 60.5872 33.2954L60.5172 32.9704C60.7772 32.927 61.0072 32.862 61.2072 32.7754C61.4072 32.6887 61.563 32.5695 61.6747 32.4179C61.788 32.2679 61.8447 32.0754 61.8447 31.8404V29.9354H60.7497V29.6029H62.2647ZM61.8722 28.3704C61.9655 28.3704 62.0405 28.3987 62.0972 28.4554C62.1538 28.512 62.1822 28.5812 62.1822 28.6629C62.1822 28.7479 62.1538 28.8195 62.0972 28.8779C62.0405 28.9345 61.9655 28.9629 61.8722 28.9629C61.7822 28.9629 61.7097 28.9345 61.6547 28.8779C61.5997 28.8195 61.5722 28.7479 61.5722 28.6629C61.5722 28.5812 61.5997 28.512 61.6547 28.4554C61.7097 28.3987 61.7822 28.3704 61.8722 28.3704ZM70.4763 31.2129L70.3263 31.5529L67.5863 30.3354L67.7338 30.0104L70.4763 31.2129ZM70.3838 32.3729L70.2363 32.7129L67.4938 31.4954L67.6413 31.1704L70.3838 32.3729ZM70.4763 29.0529L67.7338 30.2579L67.5863 30.3354V29.9329L70.3263 28.7129L70.4763 29.0529ZM77.4174 31.6604C77.4174 31.7654 77.4349 31.842 77.4699 31.8904C77.5049 31.9387 77.5591 31.9745 77.6324 31.9979L77.5299 32.2929C77.4166 32.2779 77.3174 32.242 77.2324 32.1854C77.1474 32.127 77.0857 32.0395 77.0474 31.9229C76.9524 32.0445 76.8341 32.137 76.6924 32.2004C76.5507 32.262 76.3941 32.2929 76.2224 32.2929C75.9591 32.2929 75.7516 32.2187 75.5999 32.0704C75.4482 31.922 75.3724 31.7254 75.3724 31.4804C75.3724 31.2087 75.4782 31.0004 75.6899 30.8554C75.9016 30.7104 76.2074 30.6379 76.6074 30.6379H76.9949V30.4179C76.9949 30.2279 76.9391 30.0937 76.8274 30.0154C76.7174 29.9354 76.5641 29.8954 76.3674 29.8954C76.2807 29.8954 76.1791 29.9062 76.0624 29.9279C75.9457 29.9479 75.8191 29.982 75.6824 30.0304L75.5724 29.7129C75.7341 29.6529 75.8857 29.6104 76.0274 29.5854C76.1691 29.5604 76.3041 29.5479 76.4324 29.5479C76.7607 29.5479 77.0066 29.6245 77.1699 29.7779C77.3349 29.9295 77.4174 30.1362 77.4174 30.3979V31.6604ZM76.3299 31.9729C76.4599 31.9729 76.5841 31.9404 76.7024 31.8754C76.8207 31.8087 76.9182 31.717 76.9949 31.6004V30.9229H76.6149C76.3249 30.9229 76.1199 30.9729 75.9999 31.0729C75.8816 31.1729 75.8224 31.307 75.8224 31.4754C75.8224 31.6387 75.8641 31.7629 75.9474 31.8479C76.0324 31.9312 76.1599 31.9729 76.3299 31.9729ZM79.523 31.4079C79.6396 31.4079 79.7363 31.4479 79.813 31.5279C79.8913 31.6062 79.9305 31.6995 79.9305 31.8079C79.9305 31.8695 79.923 31.9312 79.908 31.9929C79.8946 32.0545 79.8688 32.1254 79.8305 32.2054L79.4255 33.1354H79.0455L79.2855 32.1429C79.1755 32.0662 79.1205 31.9554 79.1205 31.8104C79.1205 31.6987 79.1588 31.6037 79.2355 31.5254C79.3138 31.447 79.4096 31.4079 79.523 31.4079ZM79.523 29.6804C79.6396 29.6804 79.7363 29.7195 79.813 29.7979C79.8913 29.8762 79.9305 29.9712 79.9305 30.0829C79.9305 30.1929 79.8913 30.2887 79.813 30.3704C79.7363 30.4504 79.6396 30.4904 79.523 30.4904C79.4096 30.4904 79.3138 30.4504 79.2355 30.3704C79.1588 30.2887 79.1205 30.1929 79.1205 30.0829C79.1205 30.0062 79.138 29.9379 79.173 29.8779C79.208 29.8179 79.2563 29.7704 79.318 29.7354C79.3796 29.6987 79.448 29.6804 79.523 29.6804ZM86.249 29.6029V31.8129C86.249 32.1062 86.1832 32.3512 86.0515 32.5479C85.9199 32.7462 85.729 32.9054 85.479 33.0254C85.229 33.1454 84.9265 33.2354 84.5715 33.2954L84.5015 32.9704C84.7615 32.927 84.9915 32.862 85.1915 32.7754C85.3915 32.6887 85.5474 32.5695 85.659 32.4179C85.7724 32.2679 85.829 32.0754 85.829 31.8404V29.9354H84.734V29.6029H86.249ZM85.8565 28.3704C85.9499 28.3704 86.0249 28.3987 86.0815 28.4554C86.1382 28.512 86.1665 28.5812 86.1665 28.6629C86.1665 28.7479 86.1382 28.8195 86.0815 28.8779C86.0249 28.9345 85.9499 28.9629 85.8565 28.9629C85.7665 28.9629 85.694 28.9345 85.639 28.8779C85.584 28.8195 85.5565 28.7479 85.5565 28.6629C85.5565 28.5812 85.584 28.512 85.639 28.4554C85.694 28.3987 85.7665 28.3704 85.8565 28.3704ZM88.9601 30.8579V31.8479H88.5676V30.8579H87.5976V30.5054H88.5676V29.5079H88.9601V30.5054H91.0676V29.5079H91.4601V30.5054H92.4426V30.8579H91.4601V31.8479H91.0676V30.8579H88.9601ZM94.9557 30.4854C94.9557 30.2237 94.9332 29.9904 94.8882 29.7854C94.8449 29.5787 94.779 29.3912 94.6907 29.2229C94.6024 29.0529 94.4907 28.8912 94.3557 28.7379C94.2224 28.5829 94.0657 28.4254 93.8857 28.2654L94.1057 28.0354C94.3774 28.2554 94.609 28.4812 94.8007 28.7129C94.9924 28.9445 95.139 29.2029 95.2407 29.4879C95.344 29.7729 95.3957 30.1054 95.3957 30.4854C95.3957 30.8637 95.344 31.1954 95.2407 31.4804C95.139 31.7654 94.9924 32.0237 94.8007 32.2554C94.609 32.487 94.3774 32.7137 94.1057 32.9354L93.8857 32.7054C94.064 32.547 94.2199 32.3904 94.3532 32.2354C94.4882 32.082 94.5999 31.9204 94.6882 31.7504C94.7765 31.5787 94.8432 31.3904 94.8882 31.1854C94.9332 30.9787 94.9557 30.7454 94.9557 30.4854ZM5.33428 35.0579V35.3879C5.21262 35.3879 5.10178 35.4004 5.00178 35.4254C4.90345 35.4487 4.82678 35.4895 4.77178 35.5479C4.71845 35.6062 4.69595 35.6862 4.70428 35.7879L4.80928 36.8129C4.82428 36.9529 4.81595 37.0687 4.78428 37.1604C4.75262 37.252 4.69928 37.3237 4.62428 37.3754C4.55095 37.427 4.45678 37.4637 4.34178 37.4854C4.45845 37.5054 4.55428 37.5404 4.62928 37.5904C4.70428 37.6387 4.75678 37.7087 4.78678 37.8004C4.81678 37.8904 4.82428 38.0095 4.80928 38.1579L4.70428 39.1829C4.69595 39.2862 4.71845 39.367 4.77178 39.4254C4.82512 39.4837 4.90178 39.5245 5.00178 39.5479C5.10178 39.5712 5.21262 39.5829 5.33428 39.5829V39.9129C5.19428 39.9129 5.06012 39.9004 4.93178 39.8754C4.80345 39.852 4.69012 39.8112 4.59178 39.7529C4.49345 39.6945 4.41928 39.6145 4.36928 39.5129C4.31928 39.4129 4.30262 39.2862 4.31928 39.1329L4.41928 38.1829C4.43262 38.0679 4.42178 37.9712 4.38678 37.8929C4.35345 37.8145 4.28012 37.7554 4.16678 37.7154C4.05512 37.6737 3.88762 37.6529 3.66428 37.6529V37.3179C3.88762 37.3179 4.05512 37.2979 4.16678 37.2579C4.28012 37.2179 4.35345 37.1587 4.38678 37.0804C4.42178 37.002 4.43262 36.9062 4.41928 36.7929L4.31928 35.8379C4.30262 35.6845 4.31928 35.5579 4.36928 35.4579C4.41928 35.3562 4.49262 35.2762 4.58928 35.2179C4.68762 35.1595 4.80095 35.1187 4.92928 35.0954C5.05928 35.0704 5.19428 35.0579 5.33428 35.0579ZM37.7353 43.5479C37.9686 43.5479 38.1545 43.6045 38.2928 43.7179C38.4328 43.8312 38.5336 43.9912 38.5953 44.1979C38.657 44.4029 38.6878 44.6429 38.6878 44.9179C38.6878 45.1829 38.6503 45.4195 38.5753 45.6279C38.502 45.8345 38.3903 45.997 38.2403 46.1154C38.0903 46.2337 37.9011 46.2929 37.6728 46.2929C37.3845 46.2929 37.1528 46.1912 36.9778 45.9879V47.2429L36.5578 47.2954V43.6029H36.9153L36.9503 43.9704C37.047 43.8354 37.162 43.7312 37.2953 43.6579C37.4303 43.5845 37.577 43.5479 37.7353 43.5479ZM37.6353 43.8854C37.4903 43.8854 37.362 43.9295 37.2503 44.0179C37.1403 44.1045 37.0495 44.2012 36.9778 44.3079V45.6129C37.0461 45.7145 37.132 45.7954 37.2353 45.8554C37.3403 45.9137 37.4553 45.9429 37.5803 45.9429C37.7986 45.9429 37.9628 45.8595 38.0728 45.6929C38.1828 45.5262 38.2378 45.267 38.2378 44.9154C38.2378 44.6854 38.2161 44.4945 38.1728 44.3429C38.1295 44.1895 38.0636 44.0754 37.9753 44.0004C37.887 43.9237 37.7736 43.8854 37.6353 43.8854ZM39.5808 46.2354V45.9129H39.9908V43.9254H39.5808V43.6029H40.3108L40.3883 44.2254C40.49 44.0087 40.6133 43.8412 40.7583 43.7229C40.9033 43.6045 41.095 43.5454 41.3333 43.5454C41.4067 43.5454 41.4717 43.5512 41.5283 43.5629C41.5867 43.5729 41.6458 43.5862 41.7058 43.6029L41.5833 43.9779C41.5283 43.9629 41.4783 43.952 41.4333 43.9454C41.3883 43.937 41.3367 43.9329 41.2783 43.9329C41.0767 43.9329 40.9033 44.0045 40.7583 44.1479C40.6133 44.2912 40.4975 44.5079 40.4108 44.7979V45.9129H40.9458V46.2354H39.5808ZM41.3008 44.4929V43.9204L41.3433 43.6029H41.7058L41.6458 44.4929H41.3008ZM43.8864 43.6029V45.9029H44.6289V46.2354H42.6539V45.9029H43.4664V43.9354H42.6789V43.6029H43.8864ZM43.5514 42.3704C43.6447 42.3704 43.7189 42.3987 43.7739 42.4554C43.8306 42.512 43.8589 42.5812 43.8589 42.6629C43.8589 42.7479 43.8306 42.8195 43.7739 42.8779C43.7189 42.9345 43.6447 42.9629 43.5514 42.9629C43.4631 42.9629 43.3906 42.9345 43.3339 42.8779C43.2772 42.8195 43.2489 42.7479 43.2489 42.6629C43.2489 42.5812 43.2772 42.512 43.3339 42.4554C43.3906 42.3987 43.4631 42.3704 43.5514 42.3704ZM45.5519 46.2354V43.6029H45.9094L45.9419 43.9679C46.0486 43.8329 46.1819 43.7295 46.3419 43.6579C46.5036 43.5845 46.6603 43.5479 46.8119 43.5479C47.0703 43.5479 47.2578 43.6162 47.3744 43.7529C47.4928 43.8895 47.5519 44.0795 47.5519 44.3229V46.2354H47.1319V44.6329C47.1319 44.4529 47.1219 44.3079 47.1019 44.1979C47.0819 44.0862 47.0403 44.0054 46.9769 43.9554C46.9136 43.9037 46.8153 43.8779 46.6819 43.8779C46.5786 43.8779 46.4811 43.9004 46.3894 43.9454C46.2994 43.9904 46.2186 44.047 46.1469 44.1154C46.0769 44.182 46.0186 44.2495 45.9719 44.3179V46.2354H45.5519ZM50.64 46.1029C50.55 46.1629 50.4408 46.2095 50.3125 46.2429C50.1842 46.2762 50.0583 46.2929 49.935 46.2929C49.6517 46.2929 49.4333 46.2187 49.28 46.0704C49.1267 45.922 49.05 45.7312 49.05 45.4979V43.9279H48.445V43.6029H49.05V43.0054L49.47 42.9554V43.6029H50.38L50.33 43.9279H49.47V45.4929C49.47 45.6395 49.5083 45.7512 49.585 45.8279C49.6633 45.9045 49.7925 45.9429 49.9725 45.9429C50.0708 45.9429 50.1617 45.9312 50.245 45.9079C50.3283 45.8845 50.4058 45.8545 50.4775 45.8179L50.64 46.1029ZM53.103 42.4904C53.2447 42.4904 53.373 42.5029 53.488 42.5279C53.603 42.5529 53.7122 42.5879 53.8155 42.6329L53.6805 42.9454C53.5955 42.9087 53.5055 42.8812 53.4105 42.8629C53.3155 42.8445 53.2172 42.8354 53.1155 42.8354C52.9322 42.8354 52.7939 42.8712 52.7005 42.9429C52.6089 43.0145 52.563 43.1245 52.563 43.2729V43.8079H53.4555L53.4105 44.1379H52.563V46.2354H52.143V44.1379H51.5155V43.8079H52.143V43.2829C52.143 43.1195 52.1847 42.9787 52.268 42.8604C52.353 42.742 52.468 42.6512 52.613 42.5879C52.758 42.5229 52.9214 42.4904 53.103 42.4904ZM55.1061 44.4854C55.1061 44.7454 55.1286 44.9787 55.1736 45.1854C55.2186 45.3904 55.2852 45.5787 55.3736 45.7504C55.4619 45.9204 55.5727 46.082 55.7061 46.2354C55.8411 46.3904 55.9977 46.547 56.1761 46.7054L55.9561 46.9354C55.6861 46.7137 55.4544 46.487 55.2611 46.2554C55.0694 46.0237 54.9219 45.7654 54.8186 45.4804C54.7169 45.1954 54.6661 44.8637 54.6661 44.4854C54.6661 44.1054 54.7169 43.7729 54.8186 43.4879C54.9219 43.2029 55.0694 42.9445 55.2611 42.7129C55.4544 42.4812 55.6861 42.2554 55.9561 42.0354L56.1761 42.2654C55.9961 42.4254 55.8386 42.5829 55.7036 42.7379C55.5702 42.8912 55.4594 43.0529 55.3711 43.2229C55.2827 43.3912 55.2161 43.5787 55.1711 43.7854C55.1277 43.9904 55.1061 44.2237 55.1061 44.4854ZM67.9733 44.4854C67.9733 44.2237 67.9508 43.9904 67.9058 43.7854C67.8624 43.5787 67.7966 43.3912 67.7083 43.2229C67.6199 43.0529 67.5083 42.8912 67.3733 42.7379C67.2399 42.5829 67.0833 42.4254 66.9033 42.2654L67.1233 42.0354C67.3949 42.2554 67.6266 42.4812 67.8183 42.7129C68.0099 42.9445 68.1566 43.2029 68.2583 43.4879C68.3616 43.7729 68.4133 44.1054 68.4133 44.4854C68.4133 44.8637 68.3616 45.1954 68.2583 45.4804C68.1566 45.7654 68.0099 46.0237 67.8183 46.2554C67.6266 46.487 67.3949 46.7137 67.1233 46.9354L66.9033 46.7054C67.0816 46.547 67.2374 46.3904 67.3708 46.2354C67.5058 46.082 67.6174 45.9204 67.7058 45.7504C67.7941 45.5787 67.8608 45.3904 67.9058 45.1854C67.9508 44.9787 67.9733 44.7454 67.9733 44.4854ZM70.5288 45.4079C70.6455 45.4079 70.7421 45.4479 70.8188 45.5279C70.8971 45.6062 70.9363 45.6995 70.9363 45.8079C70.9363 45.8695 70.9288 45.9312 70.9138 45.9929C70.9005 46.0545 70.8746 46.1254 70.8363 46.2054L70.4313 47.1354H70.0513L70.2913 46.1429C70.1813 46.0662 70.1263 45.9554 70.1263 45.8104C70.1263 45.6987 70.1646 45.6037 70.2413 45.5254C70.3196 45.447 70.4155 45.4079 70.5288 45.4079ZM70.5288 43.6804C70.6455 43.6804 70.7421 43.7195 70.8188 43.7979C70.8971 43.8762 70.9363 43.9712 70.9363 44.0829C70.9363 44.1929 70.8971 44.2887 70.8188 44.3704C70.7421 44.4504 70.6455 44.4904 70.5288 44.4904C70.4155 44.4904 70.3196 44.4504 70.2413 44.3704C70.1646 44.2887 70.1263 44.1929 70.1263 44.0829C70.1263 44.0062 70.1438 43.9379 70.1788 43.8779C70.2138 43.8179 70.2621 43.7704 70.3238 43.7354C70.3855 43.6987 70.4538 43.6804 70.5288 43.6804ZM30.8017 49.0579C30.9417 49.0579 31.0759 49.0704 31.2042 49.0954C31.3325 49.1187 31.4459 49.1595 31.5442 49.2179C31.6425 49.2762 31.7167 49.3562 31.7667 49.4579C31.8184 49.5579 31.835 49.6845 31.8167 49.8379L31.7167 50.7929C31.7034 50.9062 31.7175 51.002 31.7592 51.0804C31.8025 51.1587 31.8809 51.2179 31.9942 51.2579C32.1075 51.2979 32.2667 51.3179 32.4717 51.3179V51.6529C32.2684 51.6529 32.1092 51.6737 31.9942 51.7154C31.8809 51.7554 31.8025 51.8145 31.7592 51.8929C31.7175 51.9712 31.7034 52.0679 31.7167 52.1829L31.8167 53.1329C31.8334 53.2862 31.8167 53.4129 31.7667 53.5129C31.7167 53.6145 31.6425 53.6945 31.5442 53.7529C31.4475 53.8112 31.3342 53.852 31.2042 53.8754C31.0759 53.9004 30.9417 53.9129 30.8017 53.9129V53.5829C30.9234 53.5829 31.0334 53.5712 31.1317 53.5479C31.2317 53.5245 31.3092 53.4837 31.3642 53.4254C31.4192 53.367 31.4417 53.2862 31.4317 53.1829L31.3267 52.1579C31.3117 52.0095 31.32 51.8904 31.3517 51.8004C31.3834 51.7087 31.44 51.6387 31.5217 51.5904C31.605 51.542 31.7142 51.5087 31.8492 51.4904C31.7192 51.4687 31.6125 51.4312 31.5292 51.3779C31.4475 51.3245 31.39 51.252 31.3567 51.1604C31.3234 51.0687 31.3134 50.9529 31.3267 50.8129L31.4317 49.7879C31.4417 49.6862 31.4192 49.6062 31.3642 49.5479C31.3092 49.4895 31.2325 49.4487 31.1342 49.4254C31.0359 49.4004 30.925 49.3879 30.8017 49.3879V49.0579ZM28.7412 57.5479C28.9745 57.5479 29.1603 57.6045 29.2987 57.7179C29.4387 57.8312 29.5395 57.9912 29.6012 58.1979C29.6628 58.4029 29.6937 58.6429 29.6937 58.9179C29.6937 59.1829 29.6562 59.4195 29.5812 59.6279C29.5078 59.8345 29.3962 59.997 29.2462 60.1154C29.0962 60.2337 28.907 60.2929 28.6787 60.2929C28.3903 60.2929 28.1587 60.1912 27.9837 59.9879V61.2429L27.5637 61.2954V57.6029H27.9212L27.9562 57.9704C28.0528 57.8354 28.1678 57.7312 28.3012 57.6579C28.4362 57.5845 28.5828 57.5479 28.7412 57.5479ZM28.6412 57.8854C28.4962 57.8854 28.3678 57.9295 28.2562 58.0179C28.1462 58.1045 28.0553 58.2012 27.9837 58.3079V59.6129C28.052 59.7145 28.1378 59.7954 28.2412 59.8554C28.3462 59.9137 28.4612 59.9429 28.5862 59.9429C28.8045 59.9429 28.9687 59.8595 29.0787 59.6929C29.1887 59.5262 29.2437 59.267 29.2437 58.9154C29.2437 58.6854 29.222 58.4945 29.1787 58.3429C29.1353 58.1895 29.0695 58.0754 28.9812 58.0004C28.8928 57.9237 28.7795 57.8854 28.6412 57.8854ZM30.5867 60.2354V59.9129H30.9967V57.9254H30.5867V57.6029H31.3167L31.3942 58.2254C31.4959 58.0087 31.6192 57.8412 31.7642 57.7229C31.9092 57.6045 32.1009 57.5454 32.3392 57.5454C32.4125 57.5454 32.4775 57.5512 32.5342 57.5629C32.5925 57.5729 32.6517 57.5862 32.7117 57.6029L32.5892 57.9779C32.5342 57.9629 32.4842 57.952 32.4392 57.9454C32.3942 57.937 32.3425 57.9329 32.2842 57.9329C32.0825 57.9329 31.9092 58.0045 31.7642 58.1479C31.6192 58.2912 31.5034 58.5079 31.4167 58.7979V59.9129H31.9517V60.2354H30.5867ZM32.3067 58.4929V57.9204L32.3492 57.6029H32.7117L32.6517 58.4929H32.3067ZM34.8923 57.6029V59.9029H35.6348V60.2354H33.6598V59.9029H34.4723V57.9354H33.6848V57.6029H34.8923ZM34.5573 56.3704C34.6506 56.3704 34.7248 56.3987 34.7798 56.4554C34.8364 56.512 34.8648 56.5812 34.8648 56.6629C34.8648 56.7479 34.8364 56.8195 34.7798 56.8779C34.7248 56.9345 34.6506 56.9629 34.5573 56.9629C34.4689 56.9629 34.3964 56.9345 34.3398 56.8779C34.2831 56.8195 34.2548 56.7479 34.2548 56.6629C34.2548 56.5812 34.2831 56.512 34.3398 56.4554C34.3964 56.3987 34.4689 56.3704 34.5573 56.3704ZM36.5578 60.2354V57.6029H36.9153L36.9478 57.9679C37.0545 57.8329 37.1878 57.7295 37.3478 57.6579C37.5095 57.5845 37.6661 57.5479 37.8178 57.5479C38.0761 57.5479 38.2636 57.6162 38.3803 57.7529C38.4986 57.8895 38.5578 58.0795 38.5578 58.3229V60.2354H38.1378V58.6329C38.1378 58.4529 38.1278 58.3079 38.1078 58.1979C38.0878 58.0862 38.0461 58.0054 37.9828 57.9554C37.9195 57.9037 37.8211 57.8779 37.6878 57.8779C37.5845 57.8779 37.487 57.9004 37.3953 57.9454C37.3053 57.9904 37.2245 58.047 37.1528 58.1154C37.0828 58.182 37.0245 58.2495 36.9778 58.3179V60.2354H36.5578ZM41.6458 60.1029C41.5558 60.1629 41.4467 60.2095 41.3183 60.2429C41.19 60.2762 41.0642 60.2929 40.9408 60.2929C40.6575 60.2929 40.4392 60.2187 40.2858 60.0704C40.1325 59.922 40.0558 59.7312 40.0558 59.4979V57.9279H39.4508V57.6029H40.0558V57.0054L40.4758 56.9554V57.6029H41.3858L41.3358 57.9279H40.4758V59.4929C40.4758 59.6395 40.5142 59.7512 40.5908 59.8279C40.6692 59.9045 40.7983 59.9429 40.9783 59.9429C41.0767 59.9429 41.1675 59.9312 41.2508 59.9079C41.3342 59.8845 41.4117 59.8545 41.4833 59.8179L41.6458 60.1029ZM44.1089 56.4904C44.2506 56.4904 44.3789 56.5029 44.4939 56.5279C44.6089 56.5529 44.7181 56.5879 44.8214 56.6329L44.6864 56.9454C44.6014 56.9087 44.5114 56.8812 44.4164 56.8629C44.3214 56.8445 44.2231 56.8354 44.1214 56.8354C43.9381 56.8354 43.7997 56.8712 43.7064 56.9429C43.6147 57.0145 43.5689 57.1245 43.5689 57.2729V57.8079H44.4614L44.4164 58.1379H43.5689V60.2354H43.1489V58.1379H42.5214V57.8079H43.1489V57.2829C43.1489 57.1195 43.1906 56.9787 43.2739 56.8604C43.3589 56.742 43.4739 56.6512 43.6189 56.5879C43.7639 56.5229 43.9272 56.4904 44.1089 56.4904ZM46.1119 58.4854C46.1119 58.7454 46.1344 58.9787 46.1794 59.1854C46.2244 59.3904 46.2911 59.5787 46.3794 59.7504C46.4678 59.9204 46.5786 60.082 46.7119 60.2354C46.8469 60.3904 47.0036 60.547 47.1819 60.7054L46.9619 60.9354C46.6919 60.7137 46.4603 60.487 46.2669 60.2554C46.0753 60.0237 45.9278 59.7654 45.8244 59.4804C45.7228 59.1954 45.6719 58.8637 45.6719 58.4854C45.6719 58.1054 45.7228 57.7729 45.8244 57.4879C45.9278 57.2029 46.0753 56.9445 46.2669 56.7129C46.4603 56.4812 46.6919 56.2554 46.9619 56.0354L47.1819 56.2654C47.0019 56.4254 46.8444 56.5829 46.7094 56.7379C46.5761 56.8912 46.4653 57.0529 46.3769 57.2229C46.2886 57.3912 46.2219 57.5787 46.1769 57.7854C46.1336 57.9904 46.1119 58.2237 46.1119 58.4854ZM61.9772 58.4854C61.9772 58.2237 61.9547 57.9904 61.9097 57.7854C61.8663 57.5787 61.8005 57.3912 61.7122 57.2229C61.6238 57.0529 61.5122 56.8912 61.3772 56.7379C61.2438 56.5829 61.0872 56.4254 60.9072 56.2654L61.1272 56.0354C61.3988 56.2554 61.6305 56.4812 61.8222 56.7129C62.0138 56.9445 62.1605 57.2029 62.2622 57.4879C62.3655 57.7729 62.4172 58.1054 62.4172 58.4854C62.4172 58.8637 62.3655 59.1954 62.2622 59.4804C62.1605 59.7654 62.0138 60.0237 61.8222 60.2554C61.6305 60.487 61.3988 60.7137 61.1272 60.9354L60.9072 60.7054C61.0855 60.547 61.2413 60.3904 61.3747 60.2354C61.5097 60.082 61.6213 59.9204 61.7097 59.7504C61.798 59.5787 61.8647 59.3904 61.9097 59.1854C61.9547 58.9787 61.9772 58.7454 61.9772 58.4854ZM64.5327 59.4079C64.6494 59.4079 64.7461 59.4479 64.8227 59.5279C64.9011 59.6062 64.9402 59.6995 64.9402 59.8079C64.9402 59.8695 64.9327 59.9312 64.9177 59.9929C64.9044 60.0545 64.8786 60.1254 64.8402 60.2054L64.4352 61.1354H64.0552L64.2952 60.1429C64.1852 60.0662 64.1302 59.9554 64.1302 59.8104C64.1302 59.6987 64.1686 59.6037 64.2452 59.5254C64.3236 59.447 64.4194 59.4079 64.5327 59.4079ZM64.5327 57.6804C64.6494 57.6804 64.7461 57.7195 64.8227 57.7979C64.9011 57.8762 64.9402 57.9712 64.9402 58.0829C64.9402 58.1929 64.9011 58.2887 64.8227 58.3704C64.7461 58.4504 64.6494 58.4904 64.5327 58.4904C64.4194 58.4904 64.3236 58.4504 64.2452 58.3704C64.1686 58.2887 64.1302 58.1929 64.1302 58.0829C64.1302 58.0062 64.1477 57.9379 64.1827 57.8779C64.2177 57.8179 64.2661 57.7704 64.3277 57.7354C64.3894 57.6987 64.4577 57.6804 64.5327 57.6804ZM24.8056 63.0579C24.9456 63.0579 25.0798 63.0704 25.2081 63.0954C25.3364 63.1187 25.4498 63.1595 25.5481 63.2179C25.6464 63.2762 25.7206 63.3562 25.7706 63.4579C25.8223 63.5579 25.8389 63.6845 25.8206 63.8379L25.7206 64.7929C25.7073 64.9062 25.7214 65.002 25.7631 65.0804C25.8064 65.1587 25.8848 65.2179 25.9981 65.2579C26.1114 65.2979 26.2706 65.3179 26.4756 65.3179V65.6529C26.2723 65.6529 26.1131 65.6737 25.9981 65.7154C25.8848 65.7554 25.8064 65.8145 25.7631 65.8929C25.7214 65.9712 25.7073 66.0679 25.7206 66.1829L25.8206 67.1329C25.8373 67.2862 25.8206 67.4129 25.7706 67.5129C25.7206 67.6145 25.6464 67.6945 25.5481 67.7529C25.4514 67.8112 25.3381 67.852 25.2081 67.8754C25.0798 67.9004 24.9456 67.9129 24.8056 67.9129V67.5829C24.9273 67.5829 25.0373 67.5712 25.1356 67.5479C25.2356 67.5245 25.3131 67.4837 25.3681 67.4254C25.4231 67.367 25.4456 67.2862 25.4356 67.1829L25.3306 66.1579C25.3156 66.0095 25.3239 65.8904 25.3556 65.8004C25.3873 65.7087 25.4439 65.6387 25.5256 65.5904C25.6089 65.542 25.7181 65.5087 25.8531 65.4904C25.7231 65.4687 25.6164 65.4312 25.5331 65.3779C25.4514 65.3245 25.3939 65.252 25.3606 65.1604C25.3273 65.0687 25.3173 64.9529 25.3306 64.8129L25.4356 63.7879C25.4456 63.6862 25.4231 63.6062 25.3681 63.5479C25.3131 63.4895 25.2364 63.4487 25.1381 63.4254C25.0398 63.4004 24.9289 63.3879 24.8056 63.3879V63.0579ZM34.5523 73.4079C34.6689 73.4079 34.7656 73.4479 34.8423 73.5279C34.9206 73.6062 34.9598 73.6995 34.9598 73.8079C34.9598 73.8695 34.9523 73.9312 34.9373 73.9929C34.9239 74.0545 34.8981 74.1254 34.8598 74.2054L34.4548 75.1354H34.0748L34.3148 74.1429C34.2048 74.0662 34.1498 73.9554 34.1498 73.8104C34.1498 73.6987 34.1881 73.6037 34.2648 73.5254C34.3431 73.447 34.4389 73.4079 34.5523 73.4079ZM34.5523 71.6804C34.6689 71.6804 34.7656 71.7195 34.8423 71.7979C34.9206 71.8762 34.9598 71.9712 34.9598 72.0829C34.9598 72.1929 34.9206 72.2887 34.8423 72.3704C34.7656 72.4504 34.6689 72.4904 34.5523 72.4904C34.4389 72.4904 34.3431 72.4504 34.2648 72.3704C34.1881 72.2887 34.1498 72.1929 34.1498 72.0829C34.1498 72.0062 34.1673 71.9379 34.2023 71.8779C34.2373 71.8179 34.2856 71.7704 34.3473 71.7354C34.4089 71.6987 34.4773 71.6804 34.5523 71.6804Z" fill="white"/>
<path d="M43.9189 21.7929V25.1354H43.4989V22.2479L42.7089 22.7279L42.5264 22.4279L43.5514 21.7929H43.9189ZM44.6389 24.8929V25.2354H42.6514V24.8929H44.6389ZM52.913 28.7929V32.1354H52.493V29.2479L51.703 29.7279L51.5205 29.4279L52.5455 28.7929H52.913ZM53.633 31.8929V32.2354H51.6455V31.8929H53.633Z" fill="#FFB86C"/>
<path d="M57.9391 43.8429L57.8591 42.5429H58.3866L58.3091 43.8429H57.9391ZM58.7741 43.8429L58.6991 42.5429H59.2241L59.1441 43.8429H58.7741ZM60.7972 46.2354H60.3172L61.2897 44.8454L60.4372 43.6029H60.9347L61.5447 44.5829L62.1622 43.6029H62.6422L61.7922 44.8279L62.7622 46.2354H62.2472L61.5272 45.1054L60.7972 46.2354ZM63.9352 43.8429L63.8552 42.5429H64.3827L64.3052 43.8429H63.9352ZM64.7702 43.8429L64.6952 42.5429H65.2202L65.1402 43.8429H64.7702ZM48.945 57.8429L48.865 56.5429H49.3925L49.315 57.8429H48.945ZM49.78 57.8429L49.705 56.5429H50.23L50.15 57.8429H49.78ZM51.308 56.3529L51.643 56.1879L53.783 60.6004L53.443 60.7504L51.308 56.3529ZM54.5461 60.2354V57.6029H54.9036L54.9361 57.9679C55.0427 57.8329 55.1761 57.7295 55.3361 57.6579C55.4977 57.5845 55.6544 57.5479 55.8061 57.5479C56.0644 57.5479 56.2519 57.6162 56.3686 57.7529C56.4869 57.8895 56.5461 58.0795 56.5461 58.3229V60.2354H56.1261V58.6329C56.1261 58.4529 56.1161 58.3079 56.0961 58.1979C56.0761 58.0862 56.0344 58.0054 55.9711 57.9554C55.9077 57.9037 55.8094 57.8779 55.6761 57.8779C55.5727 57.8779 55.4752 57.9004 55.3836 57.9454C55.2936 57.9904 55.2127 58.047 55.1411 58.1154C55.0711 58.182 55.0127 58.2495 54.9661 58.3179V60.2354H54.5461ZM57.9391 57.8429L57.8591 56.5429H58.3866L58.3091 57.8429H57.9391ZM58.7741 57.8429L58.6991 56.5429H59.2241L59.1441 57.8429H58.7741Z" fill="#50FA7B"/>
<path d="M18.9895 71.9454C19.0862 71.8187 19.197 71.7212 19.322 71.6529C19.4487 71.5829 19.5878 71.5479 19.7395 71.5479C19.9745 71.5479 20.1645 71.6045 20.3095 71.7179C20.4545 71.8312 20.5604 71.9912 20.627 72.1979C20.6937 72.4029 20.727 72.6429 20.727 72.9179C20.727 73.1829 20.687 73.4195 20.607 73.6279C20.527 73.8345 20.4095 73.997 20.2545 74.1154C20.1012 74.2337 19.9112 74.2929 19.6845 74.2929C19.3795 74.2929 19.1403 74.1829 18.967 73.9629L18.937 74.2354H18.5695V70.5429L18.9895 70.4904V71.9454ZM19.5845 73.9529C19.8045 73.9529 19.9737 73.8679 20.092 73.6979C20.2104 73.5279 20.2695 73.267 20.2695 72.9154C20.2695 72.6854 20.2462 72.4945 20.1995 72.3429C20.1529 72.1895 20.0829 72.0754 19.9895 72.0004C19.8979 71.9237 19.7845 71.8854 19.6495 71.8854C19.5028 71.8854 19.3737 71.9295 19.262 72.0179C19.152 72.1045 19.0612 72.2012 18.9895 72.3079V73.6129C19.0578 73.7162 19.1437 73.7987 19.247 73.8604C19.352 73.922 19.4645 73.9529 19.5845 73.9529ZM21.5926 74.2354V73.9129H22.0026V71.9254H21.5926V71.6029H22.3226L22.4001 72.2254C22.5017 72.0087 22.6251 71.8412 22.7701 71.7229C22.9151 71.6045 23.1067 71.5454 23.3451 71.5454C23.4184 71.5454 23.4834 71.5512 23.5401 71.5629C23.5984 71.5729 23.6576 71.5862 23.7176 71.6029L23.5951 71.9779C23.5401 71.9629 23.4901 71.952 23.4451 71.9454C23.4001 71.937 23.3484 71.9329 23.2901 71.9329C23.0884 71.9329 22.9151 72.0045 22.7701 72.1479C22.6251 72.2912 22.5092 72.5079 22.4226 72.7979V73.9129H22.9576V74.2354H21.5926ZM23.3126 72.4929V71.9204L23.3551 71.6029H23.7176L23.6576 72.4929H23.3126ZM24.8956 73.0679C24.9039 73.2712 24.9431 73.4379 25.0131 73.5679C25.0831 73.6962 25.1756 73.7912 25.2906 73.8529C25.4056 73.9129 25.5306 73.9429 25.6656 73.9429C25.8006 73.9429 25.9223 73.9229 26.0306 73.8829C26.1406 73.8429 26.2531 73.7837 26.3681 73.7054L26.5656 73.9829C26.4423 74.0795 26.3014 74.1554 26.1431 74.2104C25.9864 74.2654 25.8256 74.2929 25.6606 74.2929C25.4056 74.2929 25.1881 74.2354 25.0081 74.1204C24.8281 74.0054 24.6906 73.8454 24.5956 73.6404C24.5023 73.4337 24.4556 73.1945 24.4556 72.9229C24.4556 72.6562 24.5031 72.4195 24.5981 72.2129C24.6931 72.0062 24.8264 71.8437 24.9981 71.7254C25.1698 71.607 25.3723 71.5479 25.6056 71.5479C25.8273 71.5479 26.0181 71.6004 26.1781 71.7054C26.3381 71.8087 26.4606 71.957 26.5456 72.1504C26.6323 72.342 26.6756 72.5712 26.6756 72.8379C26.6756 72.8829 26.6748 72.9254 26.6731 72.9654C26.6714 73.0037 26.6689 73.0379 26.6656 73.0679H24.8956ZM25.6106 71.8929C25.4156 71.8929 25.2523 71.962 25.1206 72.1004C24.9906 72.2387 24.9164 72.4529 24.8981 72.7429H26.2706C26.2656 72.4612 26.2039 72.2495 26.0856 72.1079C25.9673 71.9645 25.8089 71.8929 25.6106 71.8929ZM29.4487 73.6604C29.4487 73.7654 29.4662 73.842 29.5012 73.8904C29.5362 73.9387 29.5903 73.9745 29.6637 73.9979L29.5612 74.2929C29.4478 74.2779 29.3487 74.242 29.2637 74.1854C29.1787 74.127 29.117 74.0395 29.0787 73.9229C28.9837 74.0445 28.8653 74.137 28.7237 74.2004C28.582 74.262 28.4253 74.2929 28.2537 74.2929C27.9903 74.2929 27.7828 74.2187 27.6312 74.0704C27.4795 73.922 27.4037 73.7254 27.4037 73.4804C27.4037 73.2087 27.5095 73.0004 27.7212 72.8554C27.9328 72.7104 28.2387 72.6379 28.6387 72.6379H29.0262V72.4179C29.0262 72.2279 28.9703 72.0937 28.8587 72.0154C28.7487 71.9354 28.5953 71.8954 28.3987 71.8954C28.312 71.8954 28.2103 71.9062 28.0937 71.9279C27.977 71.9479 27.8503 71.982 27.7137 72.0304L27.6037 71.7129C27.7653 71.6529 27.917 71.6104 28.0587 71.5854C28.2003 71.5604 28.3353 71.5479 28.4637 71.5479C28.792 71.5479 29.0378 71.6245 29.2012 71.7779C29.3662 71.9295 29.4487 72.1362 29.4487 72.3979V73.6604ZM28.3612 73.9729C28.4912 73.9729 28.6153 73.9404 28.7337 73.8754C28.852 73.8087 28.9495 73.717 29.0262 73.6004V72.9229H28.6462C28.3562 72.9229 28.1512 72.9729 28.0312 73.0729C27.9128 73.1729 27.8537 73.307 27.8537 73.4754C27.8537 73.6387 27.8953 73.7629 27.9787 73.8479C28.0637 73.9312 28.1912 73.9729 28.3612 73.9729ZM32.7667 71.6029L31.5817 72.7879L32.9042 74.2354H32.3517L31.0567 72.7979L32.2217 71.6029H32.7667ZM31.0092 70.4904V74.2354H30.5892V70.5429L31.0092 70.4904Z" fill="#CE79FF"/>
<path d="M103.285 94.2394L103.285 0.466759" stroke="#3B5867" stroke-width="0.4"/>
<path d="M171.304 57.3226H171.814L171.775 58.5376L172.915 58.1326L173.068 58.6066L171.907 58.9486L172.648 59.9086L172.246 60.2026L171.559 59.2006L170.872 60.2026L170.47 59.9086L171.211 58.9486L170.05 58.6066L170.203 58.1326L171.343 58.5376L171.304 57.3226ZM174.901 57.3226H175.411L175.372 58.5376L176.512 58.1326L176.665 58.6066L175.504 58.9486L176.245 59.9086L175.843 60.2026L175.156 59.2006L174.469 60.2026L174.067 59.9086L174.808 58.9486L173.647 58.6066L173.8 58.1326L174.94 58.5376L174.901 57.3226ZM178.499 57.3226H179.009L178.97 58.5376L180.11 58.1326L180.263 58.6066L179.102 58.9486L179.843 59.9086L179.441 60.2026L178.754 59.2006L178.067 60.2026L177.665 59.9086L178.406 58.9486L177.245 58.6066L177.398 58.1326L178.538 58.5376L178.499 57.3226ZM182.097 57.3226H182.607L182.568 58.5376L183.708 58.1326L183.861 58.6066L182.7 58.9486L183.441 59.9086L183.039 60.2026L182.352 59.2006L181.665 60.2026L181.263 59.9086L182.004 58.9486L180.843 58.6066L180.996 58.1326L182.136 58.5376L182.097 57.3226ZM185.694 57.3226H186.204L186.165 58.5376L187.305 58.1326L187.458 58.6066L186.297 58.9486L187.038 59.9086L186.636 60.2026L185.949 59.2006L185.262 60.2026L184.86 59.9086L185.601 58.9486L184.44 58.6066L184.593 58.1326L185.733 58.5376L185.694 57.3226ZM189.292 57.3226H189.802L189.763 58.5376L190.903 58.1326L191.056 58.6066L189.895 58.9486L190.636 59.9086L190.234 60.2026L189.547 59.2006L188.86 60.2026L188.458 59.9086L189.199 58.9486L188.038 58.6066L188.191 58.1326L189.331 58.5376L189.292 57.3226ZM192.89 57.3226H193.4L193.361 58.5376L194.501 58.1326L194.654 58.6066L193.493 58.9486L194.234 59.9086L193.832 60.2026L193.145 59.2006L192.458 60.2026L192.056 59.9086L192.797 58.9486L191.636 58.6066L191.789 58.1326L192.929 58.5376L192.89 57.3226ZM196.487 57.3226H196.997L196.958 58.5376L198.098 58.1326L198.251 58.6066L197.09 58.9486L197.831 59.9086L197.429 60.2026L196.742 59.2006L196.055 60.2026L195.653 59.9086L196.394 58.9486L195.233 58.6066L195.386 58.1326L196.526 58.5376L196.487 57.3226ZM200.085 57.3226H200.595L200.556 58.5376L201.696 58.1326L201.849 58.6066L200.688 58.9486L201.429 59.9086L201.027 60.2026L200.34 59.2006L199.653 60.2026L199.251 59.9086L199.992 58.9486L198.831 58.6066L198.984 58.1326L200.124 58.5376L200.085 57.3226ZM171.304 65.3226H171.814L171.775 66.5376L172.915 66.1326L173.068 66.6066L171.907 66.9486L172.648 67.9086L172.246 68.2026L171.559 67.2006L170.872 68.2026L170.47 67.9086L171.211 66.9486L170.05 66.6066L170.203 66.1326L171.343 66.5376L171.304 65.3226ZM200.085 65.3226H200.595L200.556 66.5376L201.696 66.1326L201.849 66.6066L200.688 66.9486L201.429 67.9086L201.027 68.2026L200.34 67.2006L199.653 68.2026L199.251 67.9086L199.992 66.9486L198.831 66.6066L198.984 66.1326L200.124 66.5376L200.085 65.3226ZM171.304 73.3226H171.814L171.775 74.5376L172.915 74.1326L173.068 74.6066L171.907 74.9486L172.648 75.9086L172.246 76.2026L171.559 75.2006L170.872 76.2026L170.47 75.9086L171.211 74.9486L170.05 74.6066L170.203 74.1326L171.343 74.5376L171.304 73.3226ZM174.901 73.3226H175.411L175.372 74.5376L176.512 74.1326L176.665 74.6066L175.504 74.9486L176.245 75.9086L175.843 76.2026L175.156 75.2006L174.469 76.2026L174.067 75.9086L174.808 74.9486L173.647 74.6066L173.8 74.1326L174.94 74.5376L174.901 73.3226ZM178.499 73.3226H179.009L178.97 74.5376L180.11 74.1326L180.263 74.6066L179.102 74.9486L179.843 75.9086L179.441 76.2026L178.754 75.2006L178.067 76.2026L177.665 75.9086L178.406 74.9486L177.245 74.6066L177.398 74.1326L178.538 74.5376L178.499 73.3226ZM182.097 73.3226H182.607L182.568 74.5376L183.708 74.1326L183.861 74.6066L182.7 74.9486L183.441 75.9086L183.039 76.2026L182.352 75.2006L181.665 76.2026L181.263 75.9086L182.004 74.9486L180.843 74.6066L180.996 74.1326L182.136 74.5376L182.097 73.3226ZM185.694 73.3226H186.204L186.165 74.5376L187.305 74.1326L187.458 74.6066L186.297 74.9486L187.038 75.9086L186.636 76.2026L185.949 75.2006L185.262 76.2026L184.86 75.9086L185.601 74.9486L184.44 74.6066L184.593 74.1326L185.733 74.5376L185.694 73.3226ZM189.292 73.3226H189.802L189.763 74.5376L190.903 74.1326L191.056 74.6066L189.895 74.9486L190.636 75.9086L190.234 76.2026L189.547 75.2006L188.86 76.2026L188.458 75.9086L189.199 74.9486L188.038 74.6066L188.191 74.1326L189.331 74.5376L189.292 73.3226ZM192.89 73.3226H193.4L193.361 74.5376L194.501 74.1326L194.654 74.6066L193.493 74.9486L194.234 75.9086L193.832 76.2026L193.145 75.2006L192.458 76.2026L192.056 75.9086L192.797 74.9486L191.636 74.6066L191.789 74.1326L192.929 74.5376L192.89 73.3226ZM196.487 73.3226H196.997L196.958 74.5376L198.098 74.1326L198.251 74.6066L197.09 74.9486L197.831 75.9086L197.429 76.2026L196.742 75.2006L196.055 76.2026L195.653 75.9086L196.394 74.9486L195.233 74.6066L195.386 74.1326L196.526 74.5376L196.487 73.3226ZM200.085 73.3226H200.595L200.556 74.5376L201.696 74.1326L201.849 74.6066L200.688 74.9486L201.429 75.9086L201.027 76.2026L200.34 75.2006L199.653 76.2026L199.251 75.9086L199.992 74.9486L198.831 74.6066L198.984 74.1326L200.124 74.5376L200.085 73.3226Z" fill="#E9BA56"/>
</svg>
